<svg xmlns="http://www.w3.org/2000/svg" width="1200" height="630" viewBox="0 0 1200 630" role="img" aria-labelledby="title desc">
  <title id="title">Sunrun ethics guide image option B</title>
  <desc id="desc">Premium editorial source dossier with ethics documents, reporting path, solar roof detail and SolarComplaint.com branding.</desc>
  <defs>
    <linearGradient id="dark" x1="0" y1="0" x2="1" y2="1">
      <stop offset="0" stop-color="#112d22"/>
      <stop offset="1" stop-color="#244c39"/>
    </linearGradient>
    <linearGradient id="warm" x1="0" y1="0" x2="1" y2="1">
      <stop offset="0" stop-color="#fffaf0"/>
      <stop offset="1" stop-color="#e9ddc1"/>
    </linearGradient>
    <filter id="shadow" x="-30%" y="-30%" width="160%" height="160%"><feDropShadow dx="0" dy="18" stdDeviation="18" flood-color="#081811" flood-opacity=".3"/></filter>
  </defs>
  <rect width="1200" height="630" fill="url(#dark)"/>
  <circle cx="1070" cy="82" r="160" fill="#345e49" opacity=".38"/>
  <circle cx="1025" cy="74" r="82" fill="#e4bd67" opacity=".13"/>

  <g transform="translate(58 48)">
    <text x="0" y="0" dominant-baseline="hanging" font-family="Georgia, serif" font-size="27" font-weight="700" fill="#fffaf0">SolarComplaint.com</text>
    <text x="0" y="41" font-family="Arial, sans-serif" font-size="10" font-weight="700" letter-spacing="3" fill="#b9c9bd">CONSUMER RESEARCH • EDITORIAL</text>
    <rect x="0" y="60" width="84" height="4" fill="#d1a13a"/>

    <text x="0" y="123" font-family="Arial, sans-serif" font-size="12" font-weight="800" letter-spacing="3.4" fill="#d9b65f">SOURCE DOSSIER</text>
    <text x="0" y="190" font-family="Georgia, serif" font-size="78" fill="#fffaf0">Sunrun</text>
    <text x="0" y="247" font-family="Georgia, serif" font-size="42" fill="#fffaf0">Ethics &amp; Compliance</text>
    <text x="0" y="286" font-family="Arial, sans-serif" font-size="16" fill="#cedbd1">Know the policy. Document the record. Find the right route.</text>

    <g transform="translate(0 340)">
      <rect width="436" height="58" rx="5" fill="#f3c65e"/>
      <text x="24" y="36" font-family="Arial, sans-serif" font-size="13" font-weight="900" letter-spacing="1.5" fill="#173428">CURRENT REPORTING: ALLVOICES</text>
      <path d="M382 29 H408 M398 19 L408 29 L398 39" fill="none" stroke="#173428" stroke-width="3" stroke-linecap="round" stroke-linejoin="round"/>
    </g>
    <text x="0" y="445" font-family="Arial, sans-serif" font-size="11" font-weight="700" letter-spacing="2" fill="#a9bcae">POLICIES • VENDORS • LEADERSHIP • PUBLIC RECORD</text>
    <text x="0" y="508" font-family="Arial, sans-serif" font-size="11" fill="#a9bcae">Independent coverage. Not affiliated with Sunrun.</text>
  </g>

  <g transform="translate(625 88) rotate(-2)" filter="url(#shadow)">
    <rect x="0" y="0" width="470" height="438" rx="18" fill="url(#warm)"/>
    <rect x="0" y="0" width="470" height="58" rx="18" fill="#f6f0e1"/>
    <rect x="0" y="42" width="470" height="16" fill="#f6f0e1"/>
    <text x="28" y="36" font-family="Arial, sans-serif" font-size="11" font-weight="900" letter-spacing="2" fill="#53675a">SUNRUN • RESEARCH FILE</text>
    <rect x="387" y="18" width="55" height="7" rx="3" fill="#c99a31"/>

    <g transform="translate(28 92)">
      <text x="0" y="0" font-family="Arial, sans-serif" font-size="10" font-weight="800" letter-spacing="1.8" fill="#68766c">PRIMARY DOCUMENT</text>
      <text x="0" y="33" font-family="Georgia, serif" font-size="27" fill="#173428">Code of Business Conduct &amp; Ethics</text>
      <line x1="0" y1="54" x2="410" y2="54" stroke="#c8c4b5"/>
    </g>
    <g transform="translate(28 183)">
      <text x="0" y="0" font-family="Arial, sans-serif" font-size="10" font-weight="800" letter-spacing="1.8" fill="#68766c">REPORTING POLICY</text>
      <text x="0" y="33" font-family="Georgia, serif" font-size="27" fill="#173428">Whistleblower Policy</text>
      <text x="0" y="62" font-family="Arial, sans-serif" font-size="12" font-weight="800" fill="#a47b20">ALLVOICES • ETHICS HOTLINE</text>
      <line x1="0" y1="82" x2="410" y2="82" stroke="#c8c4b5"/>
    </g>
    <g transform="translate(28 297)">
      <text x="0" y="0" font-family="Arial, sans-serif" font-size="10" font-weight="800" letter-spacing="1.8" fill="#68766c">THIRD-PARTY STANDARDS</text>
      <text x="0" y="33" font-family="Georgia, serif" font-size="27" fill="#173428">Vendor Code of Conduct</text>
      <line x1="0" y1="55" x2="410" y2="55" stroke="#c8c4b5"/>
    </g>
    <g transform="translate(28 382)">
      <circle cx="14" cy="14" r="14" fill="#214f3b"/>
      <path d="M7 14 L12 19 L22 9" fill="none" stroke="#fffaf0" stroke-width="3" stroke-linecap="round" stroke-linejoin="round"/>
      <text x="40" y="19" font-family="Arial, sans-serif" font-size="11" font-weight="800" letter-spacing="1.3" fill="#53675a">CURRENT SOURCE SET • OCTOBER 2025</text>
    </g>
  </g>

  <g transform="translate(900 485)" opacity=".72">
    <path d="M0 75 L122 0 L250 75 Z" fill="#202b27"/>
    <g transform="translate(65 23) rotate(-8)">
      <rect width="118" height="48" fill="#254761"/>
      <path d="M0 16 H118 M0 32 H118 M29 0 V48 M58 0 V48 M87 0 V48" stroke="#8cadc7" stroke-width="2"/>
    </g>
  </g>
</svg>